<?xml version="1.0" standalone="no"?>
<!DOCTYPE svg PUBLIC "-//W3C//DTD SVG 20010904//EN"
 "http://www.w3.org/TR/2001/REC-SVG-20010904/DTD/svg10.dtd">
<svg version="1.0" xmlns="http://www.w3.org/2000/svg"
 width="655.000000pt" height="1280.000000pt" viewBox="0 0 655.000000 1280.000000"
 preserveAspectRatio="xMidYMid meet">
<g transform="translate(0.000000,1280.000000) scale(0.100000,-0.100000)"
fill="#ffffff" stroke="none">
<path d="M3005 12675 c-406 -65 -753 -248 -1045 -551 -284 -294 -461 -656
-536 -1094 -17 -99 -19 -258 -22 -2725 -2 -1825 0 -2661 8 -2755 77 -964 771
-1710 1682 -1809 327 -36 668 25 974 175 611 298 1016 915 1074 1634 8 94 10
930 8 2755 -3 2467 -5 2626 -22 2725 -57 335 -180 636 -362 891 -71 98 -241
279 -339 359 -229 187 -514 323 -800 381 -143 28 -480 36 -620 14z"/>
<path d="M129 6923 c-12 -13 -14 -147 -13 -782 0 -832 4 -899 60 -1178 94
-462 295 -898 595 -1283 91 -118 313 -346 439 -452 301 -254 658 -454 1032
-579 135 -45 354 -101 471 -119 56 -9 81 -18 88 -31 5 -11 8 -216 7 -536 l-3
-518 -787 -3 -788 -2 0 -680 0 -680 2045 0 2045 0 0 680 0 680 -787 2 -788 3
-3 518 c-1 320 2 525 7 536 7 13 32 22 88 31 202 32 495 119 698 205 403 173
724 392 1030 706 160 164 237 260 366 452 213 321 366 689 443 1070 56 279 60
346 60 1178 1 635 -1 769 -13 782 -12 15 -57 17 -462 17 -424 0 -449 -1 -458
-18 -6 -12 -11 -315 -14 -793 -4 -848 -4 -848 -68 -1097 -69 -267 -212 -553
-388 -772 -72 -90 -241 -260 -331 -333 -120 -97 -275 -195 -423 -267 -626
-308 -1378 -308 -2004 0 -571 279 -991 784 -1142 1372 -64 249 -64 249 -68
1097 -3 478 -8 781 -14 793 -9 17 -34 18 -458 18 -405 0 -450 -2 -462 -17z"/>
</g>
</svg>
