<svg xmlns="http://www.w3.org/2000/svg" width="18" height="22" viewBox="0 0 18 22">
  <path id="Path_94" data-name="Path 94" d="M21,3.2A2.141,2.141,0,0,0,18.923,1H9.8a2.02,2.02,0,0,0-1.468.645L3.609,6.652A2.268,2.268,0,0,0,3,8.207V20.8a2.265,2.265,0,0,0,.609,1.555A2.017,2.017,0,0,0,5.077,23H18.923a2.017,2.017,0,0,0,1.468-.645A2.265,2.265,0,0,0,21,20.8ZM9.923,2.467V6.133a2.265,2.265,0,0,1-.609,1.555,2.017,2.017,0,0,1-1.468.645H4.385V20.8a.754.754,0,0,0,.2.518.671.671,0,0,0,.489.215H18.923a.672.672,0,0,0,.489-.215.754.754,0,0,0,.2-.518V3.2a.714.714,0,0,0-.692-.733ZM8.538,3.5,5.364,6.867H7.846a.671.671,0,0,0,.489-.215.754.754,0,0,0,.2-.518Z" transform="translate(-3 -1)" fill="white" fill-rule="evenodd"/>
</svg>
