<svg xmlns="http://www.w3.org/2000/svg" width="322.953" height="322.953" viewBox="0 0 322.953 322.953">
  <g id="send" transform="translate(152.507 170.448) rotate(45)">
    <g id="Group_1" data-name="Group 1" transform="translate(-126.868 -126.868)">
      <path id="Path_5" data-name="Path 5" d="M172.146,228.363a5.068,5.068,0,0,1-4.314-2.4l-39.7-64.252a5.076,5.076,0,0,1-.668-3.612l10.4-54.906-54.909,10.4a5.059,5.059,0,0,1-3.612-.668l-64.249-39.7a5.073,5.073,0,0,1,1.24-9.185L234.549.206a5.075,5.075,0,0,1,6.3,6.3L177.018,224.715a5.082,5.082,0,0,1-4.189,3.606A5.5,5.5,0,0,1,172.146,228.363ZM137.8,158.047l32.676,52.882L228.5,12.549,30.121,70.573,83,103.251l60.288-11.418a5.077,5.077,0,0,1,5.932,5.932Z" fill="#fff"/>
      <path id="Path_6" data-name="Path 6" d="M23.471,222.651a5.073,5.073,0,0,1-3.589-8.661l74.79-74.79a5.074,5.074,0,0,1,7.175,7.175L27.06,221.166A5.061,5.061,0,0,1,23.471,222.651Z" fill="#fff"/>
      <path id="Path_7" data-name="Path 7" d="M77.48,227.563a5.073,5.073,0,0,1-3.589-8.661l28.148-28.148a5.074,5.074,0,0,1,7.175,7.175L81.066,226.077A5.06,5.06,0,0,1,77.48,227.563Z" fill="#fff"/>
      <path id="Path_8" data-name="Path 8" d="M18.562,168.645a5.073,5.073,0,0,1-3.589-8.661l28.148-28.148a5.074,5.074,0,0,1,7.175,7.175L22.148,167.159A5.048,5.048,0,0,1,18.562,168.645Z" fill="#fff"/>
    </g>
  </g>
</svg>
