<svg id="Layer_2" data-name="Layer 2" xmlns="http://www.w3.org/2000/svg" width="24" height="24" viewBox="0 0 24 24">
  <g id="video">
    <rect id="Rectangle_49" data-name="Rectangle 49" width="24" height="24" fill="#373f51" opacity="0"/>
    <path id="Path_76" data-name="Path 76" d="M21,7.15a1.7,1.7,0,0,0-1.85.3L17,9.45V8a3,3,0,0,0-3-3H5A3,3,0,0,0,2,8v8a3,3,0,0,0,3,3h9a3,3,0,0,0,3-3V14.55l2.16,2a1.74,1.74,0,0,0,1.16.45,1.68,1.68,0,0,0,.69-.15,1.6,1.6,0,0,0,1-1.48V8.63A1.6,1.6,0,0,0,21,7.15Z" fill="white"/>
  </g>
</svg>
