<svg xmlns="http://www.w3.org/2000/svg" xmlns:xlink="http://www.w3.org/1999/xlink" width="47.5" height="47.5" viewBox="0 0 47.5 47.5">
  <defs>
    <clipPath id="clip-path">
      <path id="path18" d="M0-47.5H47.5V0H0Z"/>
    </clipPath>
  </defs>
  <g id="g10" transform="translate(0 47.5)">
    <g id="g12">
      <g id="g14" clip-path="url(#clip-path)">
        <g id="g20" transform="translate(37.3 -24.203)">
          <path id="path22" d="M0,0A7.75,7.75,0,0,0-1.8,5.616l1.114,8.052c.246,1.783-.876,2.608-2.495,1.835l-7.314-3.495a7.659,7.659,0,0,0-5.874.022l-7.283,3.552c-1.614.786-2.743-.034-2.51-1.815L-25.1,5.706a7.744,7.744,0,0,0-1.837-5.6l-5.616-5.86c-1.245-1.295-.82-2.626.942-2.956l7.964-1.484a7.707,7.707,0,0,0,4.741-3.486l3.813-7.171c.845-1.589,2.236-1.593,3.092-.011l3.867,7.14a7.692,7.692,0,0,0,4.769,3.449L4.6-8.85c1.765.316,2.2,1.643.967,2.95Z" fill="#ffcc4d"/>
        </g>
        <g id="g24" transform="translate(13.478 -43.524)">
          <path id="path26" d="M0,0C1.279,1.766,3.058,6.146,2.146,6.809S-2.362,4.421-3.641,2.655-4.81-.68-3.8-1.413-1.279-1.766,0,0" fill="#ffd983"/>
        </g>
        <g id="g28" transform="translate(37.664 -40.868)">
          <path id="path30" d="M0,0C-1.277,1.768-4.876,4.819-5.789,4.153S-4.92-.889-3.64-2.654-.843-4.8.164-4.068,1.276-1.766,0,0" fill="#ffd983"/>
        </g>
        <g id="g32" transform="translate(22.031 -4.636)">
          <path id="path34" d="M0,0C0-2.183,1.122-6.776,2.251-6.776S4.5-2.183,4.5,0s-1,3.39-2.25,3.387S0,2.184,0,0" fill="#ffd983"/>
        </g>
        <g id="g36" transform="translate(42.255 -16.213)">
          <path id="path38" d="M0,0C-2.069-.674-6.072-3.166-5.724-4.244S-.678-4.97,1.388-4.3,4.29-2.288,3.9-1.1,2.069.675,0,0" fill="#ffd983"/>
        </g>
        <g id="g40" transform="translate(3.854 -20.508)">
          <path id="path42" d="M0,0C2.069-.675,6.767-1.021,7.117.055S3.457,3.621,1.391,4.3s-3.523.088-3.9-1.1S-2.07.676,0,0" fill="#ffd983"/>
        </g>
      </g>
    </g>
  </g>
</svg>
