<svg xmlns="http://www.w3.org/2000/svg" xmlns:xlink="http://www.w3.org/1999/xlink" width="47.5" height="47.5" viewBox="0 0 47.5 47.5">
  <defs>
    <clipPath id="clip-path">
      <path id="path18" d="M0-47.5H47.5V0H0Z"/>
    </clipPath>
  </defs>
  <g id="g10" transform="translate(0 47.5)">
    <g id="g12">
      <g id="g14" clip-path="url(#clip-path)">
        <g id="g20" transform="translate(37.3 -24.203)">
          <path id="path22" d="M0,0A7.75,7.75,0,0,0-1.8,5.616l1.114,8.052c.246,1.783-.876,2.608-2.495,1.835l-7.314-3.495a7.659,7.659,0,0,0-5.874.022l-7.283,3.552c-1.614.786-2.743-.034-2.51-1.815L-25.1,5.706a7.744,7.744,0,0,0-1.837-5.6l-5.616-5.86c-1.245-1.295-.82-2.626.942-2.956l7.964-1.484a7.707,7.707,0,0,0,4.741-3.486l3.813-7.171c.845-1.589,2.236-1.593,3.092-.011l3.867,7.14a7.692,7.692,0,0,0,4.769,3.449L4.6-8.85c1.765.316,2.2,1.643.967,2.95Z" stroke-width="5" stroke="#ffffff"/>
        </g>
      </g>
    </g>
  </g>
</svg>
