<svg xmlns="http://www.w3.org/2000/svg" width="28.16" height="30" viewBox="0 0 28.16 30">
  <g id="following_inactive" transform="translate(15 11)">
    <path id="Path_99" data-name="Path 99" d="M16.155,11.6h-2.33V9.2a1.166,1.166,0,1,0-2.33,0v2.4H9.165a1.2,1.2,0,0,0,0,2.4H11.5v2.4a1.166,1.166,0,1,0,2.33,0V14h2.33a1.2,1.2,0,0,0,0-2.4Z" transform="translate(-4.16 -8.302)" fill="#ffffff"/>
    <path id="Path_97" data-name="Path 97" d="M16,17A8,8,0,1,0,8,9,8,8,0,0,0,16,17ZM16,3a6,6,0,1,1-6,6,6,6,0,0,1,6-6ZM27,25.81v-.06a.61.61,0,0,0,0-.14A7,7,0,0,0,20,19H19c-.2,0,.006.006-.519,0H13.819c-.813.006-.623,0-.819,0H12a7,7,0,0,0-7,6.71H5v.13A.86.86,0,0,0,5,26a.57.57,0,0,0,0,.13V28a3,3,0,0,0,3,3H24a3,3,0,0,0,3-3V26.13A.57.57,0,0,0,27,26ZM25,26v2a1,1,0,0,1-1,1H8a1,1,0,0,1-1-1V26a.22.22,0,0,0,0-.08v-.06H7V25.8A5,5,0,0,1,12,21h.7l2.481,1.506a2.111,2.111,0,0,0,1.636,0L19.3,21H20a5,5,0,0,1,5,4.79v.13A.19.19,0,0,0,25,26Z" transform="translate(-19.996 -12)" fill="#ffffff"/>
  </g>
</svg>
