<svg xmlns="http://www.w3.org/2000/svg" width="64.015" height="76.201" viewBox="0 0 64.015 76.201">
  <path id="celebrating" d="M59.327,33.788h-22.4V18.923A2.8,2.8,0,0,0,34.4,15.912H32.845V13.767a4.933,4.933,0,0,0,3.413-4.96c0-1.42-.981-4.082-2.916-7.912a1.439,1.439,0,0,0-2.668,0c-1.935,3.829-2.918,6.492-2.918,7.912a4.98,4.98,0,0,0,3.212,4.911v2.2H29.419a2.8,2.8,0,0,0-2.529,3.011V33.792H4.689C2.1,33.8,0,36.293,0,39.373v9.954c0,2.758,1.732,5.082,4.032,5.416V70.668c.006,3.053,2.086,5.526,4.651,5.529H55.332c2.568,0,4.648-2.48,4.651-5.536V54.743c2.3-.334,4.03-2.657,4.032-5.416V39.373C64.013,36.291,61.916,33.793,59.327,33.788ZM29.632,8.807c0-.668.625-2.686,2.376-6.215,1.75,3.529,2.376,5.547,2.376,6.215a2.631,2.631,0,0,1-2.376,2.828,2.631,2.631,0,0,1-2.376-2.828Zm-.868,10.12a.726.726,0,0,1,.654-.778H34.4a.725.725,0,0,1,.653.778V33.792H28.766ZM58.107,70.66a3.079,3.079,0,0,1-2.776,3.3H8.683a3.079,3.079,0,0,1-2.776-3.3v-.436h52.2Zm0-2.669H5.908V63.546h52.2Zm0-6.681H5.908V56.963H27.579a4.176,4.176,0,0,0,7.452,0H58.107ZM11.775,47.919H9.157V44.526A1.421,1.421,0,0,1,10.44,43a1.421,1.421,0,0,1,1.283,1.527v2.569a6.4,6.4,0,0,0,.053.825Zm.735,2.232a4.426,4.426,0,0,0,3.791,2.4,4.426,4.426,0,0,0,3.791-2.4h6.634V53.8a6.53,6.53,0,0,0,.068.933H5.914v-.183a5.282,5.282,0,0,0,3.192-4.4Zm8.317-2.232a6.4,6.4,0,0,0,.053-.825v-.613A3.238,3.238,0,0,1,23.8,43a3.238,3.238,0,0,1,2.923,3.48v1.438Zm37.28,6.815H35.815a6.353,6.353,0,0,0,.069-.933V50.152h4.759a4.194,4.194,0,0,0,7.582,0h6.685a5.28,5.28,0,0,0,3.2,4.4Zm-18.2-6.815H35.883V45.361A2.2,2.2,0,0,1,37.869,43a2.2,2.2,0,0,1,1.985,2.363v1.731a6.4,6.4,0,0,0,.053.827Zm9.052,0a6.4,6.4,0,0,0,.053-.825v-.613A3.238,3.238,0,0,1,51.935,43a3.238,3.238,0,0,1,2.923,3.48v1.438ZM62.14,49.327a3,3,0,0,1-2.7,3.224,1.225,1.225,0,0,1-.183-.009.816.816,0,0,0-.209-.028h-.013a3.107,3.107,0,0,1-2.3-3.188v-.3h0V46.479c0-3.155-2.148-5.712-4.8-5.712s-4.8,2.557-4.8,5.712v.613a2.994,2.994,0,0,1-2.7,3.218,2.994,2.994,0,0,1-2.7-3.218V45.361c0-2.538-1.729-4.6-3.861-4.6s-3.861,2.058-3.861,4.6V53.8a2.994,2.994,0,0,1-2.7,3.218A2.994,2.994,0,0,1,28.6,53.8V46.479c0-3.155-2.148-5.712-4.8-5.712S19,43.324,19,46.479v.613a2.994,2.994,0,0,1-2.7,3.218,2.994,2.994,0,0,1-2.7-3.218V44.523c0-2.076-1.414-3.759-3.158-3.759s-3.158,1.683-3.158,3.759v4.8a2.994,2.994,0,0,1-2.7,3.218,2.994,2.994,0,0,1-2.7-3.218V39.373A3.123,3.123,0,0,1,4.689,36.02H59.327a3.123,3.123,0,0,1,2.813,3.353Z" transform="translate(0 0.004)" fill="#fff"/>
</svg>
