<svg xmlns="http://www.w3.org/2000/svg" width="48.777" height="60" viewBox="0 0 48.777 60">
  <g id="drinking" transform="translate(-7.612 -2)">
    <path id="Path_42" data-name="Path 42" d="M53.39,13H43.612V5a1,1,0,0,1,1-1h5a1,1,0,1,0,0-2h-5a3,3,0,0,0-3,3v8h-8.17C30.558-2.677,8.1-1.035,7.612,15A13.005,13.005,0,0,0,20.1,27.974c.572,5.4,2.716,25.6,3.329,31.343A2.994,2.994,0,0,0,26.411,62h22.4A3,3,0,0,0,51.8,59.317L54.26,36.163c0-.018,2.114-19.852,2.114-19.852A3.022,3.022,0,0,0,53.39,13ZM9.612,15a11.012,11.012,0,0,1,11-11c14.593.6,14.589,21.4,0,22a11.012,11.012,0,0,1-11-11Zm40.2,44.105a1,1,0,0,1-.995.895h-22.4a1,1,0,0,1-.994-.894L23,36.393c7.543-8.45,21.675-8.439,29.225-.005ZM52.5,33.834c-8.05-7.694-21.7-7.709-29.754-.014-.014.011-.642-5.912-.642-5.912A13.014,13.014,0,0,0,33.612,15h8v5a1,1,0,0,0,2,0V15H53.39a1.007,1.007,0,0,1,1,1.1Z" fill="#fff"/>
    <path id="Path_43" data-name="Path 43" d="M31.112,49a3.5,3.5,0,1,0,3.5,3.5,3.5,3.5,0,0,0-3.5-3.5Zm0,5a1.5,1.5,0,1,1,1.5-1.5,1.5,1.5,0,0,1-1.5,1.5Zm5-15a3.5,3.5,0,1,0,3.5,3.5,3.5,3.5,0,0,0-3.5-3.5Zm0,5a1.5,1.5,0,1,1,1.5-1.5,1.5,1.5,0,0,1-1.5,1.5Zm8,2a3.5,3.5,0,1,0,3.5,3.5,3.5,3.5,0,0,0-3.5-3.5Zm0,5a1.5,1.5,0,1,1,1.5-1.5,1.5,1.5,0,0,1-1.5,1.5Zm-23.5-40a1,1,0,0,0,1-1V7a1,1,0,0,0-2,0v3a1,1,0,0,0,1,1Zm-4.95-2.364a1,1,0,1,0-1.414,1.414l2.121,2.122a1,1,0,1,0,1.414-1.414ZM16.612,15a1,1,0,0,0-1-1h-3a1,1,0,1,0,0,2h3A1,1,0,0,0,16.612,15Zm-.243,2.828L14.248,19.95a1,1,0,1,0,1.414,1.414l2.121-2.122a1,1,0,1,0-1.414-1.414ZM21.612,23V20a1,1,0,1,0-2,0v3a1,1,0,1,0,2,0Zm3.95-1.636a1,1,0,1,0,1.414-1.414l-2.121-2.122a1,1,0,1,0-1.414,1.414ZM24.612,15a1,1,0,0,0,1,1h3a1,1,0,1,0,0-2h-3a1,1,0,0,0-1,1Zm-.464-2.535a1,1,0,0,0,.707-.293l2.121-2.122a1,1,0,1,0-1.414-1.414L23.44,10.758a1.007,1.007,0,0,0,.707,1.707Z" fill="#fff"/>
  </g>
</svg>
