<svg xmlns="http://www.w3.org/2000/svg" width="64.015" height="50.4" viewBox="0 0 64.015 50.4">
  <g id="eating" transform="translate(0.015 -6.8)">
    <path id="Path_40" data-name="Path 40" d="M31.8,17.1A14.7,14.7,0,1,0,46.5,31.8,14.724,14.724,0,0,0,31.8,17.1Zm0,27.5A12.8,12.8,0,1,1,44.6,31.8,12.761,12.761,0,0,1,31.8,44.6Z" fill="#fff"/>
    <path id="Path_41" data-name="Path 41" d="M31.8,11.3A20.5,20.5,0,1,0,52.3,31.8,20.528,20.528,0,0,0,31.8,11.3Zm0,39.1A18.6,18.6,0,1,1,50.4,31.8,18.565,18.565,0,0,1,31.8,50.4ZM64,19,63.8,7.8a1,1,0,0,0-1-1,1.075,1.075,0,0,0-1,1L62,18.1H60.8V7.8a1,1,0,0,0-1-1h0a1,1,0,0,0-1,1l.1,10.3H57.5l.1-10.3a1,1,0,0,0-1-1h0a1,1,0,0,0-1,1l-.1,10.3H54.3l.2-10.2a1,1,0,0,0-2,0L52.4,19h0v3a2.41,2.41,0,0,0,.7,1.8h0l1.8,2.1a1.421,1.421,0,0,1,.2.6l-.9,26.3a4.471,4.471,0,0,0,1.2,3.1,3.867,3.867,0,0,0,5.6,0,4.3,4.3,0,0,0,1.2-3.1l-.9-26.3a1.421,1.421,0,0,1,.2-.6l1.8-2.1A2.875,2.875,0,0,0,64,22V19Zm-1.9,3.1a.764.764,0,0,1-.2.5L60,24.7a2.64,2.64,0,0,0-.7,1.9l.9,26.3a2.716,2.716,0,0,1-.6,1.7,1.933,1.933,0,0,1-2.8,0,2.352,2.352,0,0,1-.6-1.7l.9-26.3a2.64,2.64,0,0,0-.7-1.9l-1.8-2.1c-.1-.2-.2-.3-.2-.5v-2h7.7v2ZM2.3,7a.75.75,0,0,0-.9,0,1.02,1.02,0,0,0-.5.8V36.6L0,53.1A3.56,3.56,0,0,0,1.1,56a3.631,3.631,0,0,0,2.8,1.2A3.631,3.631,0,0,0,6.7,56a4.357,4.357,0,0,0,1.1-2.9L6.9,37.6h.6a1.063,1.063,0,0,0,1-.9C11.4,12,2.7,7.1,2.3,7Zm3,47.6a1.933,1.933,0,0,1-2.8,0A1.553,1.553,0,0,1,2,53.2l.9-15.6H5l.9,15.6A3.506,3.506,0,0,1,5.3,54.6Zm1.3-19H2.9V10C4.9,12.5,8.4,19.2,6.6,35.6Z" fill="#fff"/>
  </g>
</svg>
