<svg xmlns="http://www.w3.org/2000/svg" width="27.52" height="52.03" viewBox="0 0 27.52 52.03">
  <g id="fishing" transform="translate(-18.24 -6)">
    <path id="Path_25" data-name="Path 25" d="M35.28,27.67V47.53a6.56,6.56,0,0,1-13.11,0V46.22h4.39L18.24,30.4V47.53a10.5,10.5,0,1,0,21,0V27.67Z" fill="#fff"/>
    <rect id="Rectangle_29" data-name="Rectangle 29" width="11.14" height="5.89" rx="2.945" transform="translate(31.67 31.49)" fill="#fff"/>
    <path id="Path_26" data-name="Path 26" d="M41.91,35.34H36.66a3,3,0,0,1-2.95-2.94,2.9,2.9,0,0,1,.12-.79,2.94,2.94,0,0,0,.79,5.77h5.25a3,3,0,0,0,2.83-2.16A3,3,0,0,1,41.91,35.34ZM37.24,6h0a2.84,2.84,0,0,1,2.84,2.84v4.87H34.4V8.84A2.84,2.84,0,0,1,37.24,6Z" fill="#fff"/>
    <path id="Path_27" data-name="Path 27" d="M37.24,11.67a8.51,8.51,0,1,0,6.024,2.489A8.52,8.52,0,0,0,37.24,11.67Zm0,11.35a1.176,1.176,0,1,0,0-.02Z" fill="#fff"/>
    <path id="Path_28" data-name="Path 28" d="M41.32,21.56a8.42,8.42,0,0,1-1.52-.14,2.84,2.84,0,1,1-4.92-2.82,8.38,8.38,0,0,1-2.07-5.55v-.14a8.52,8.52,0,1,0,12.95,7.41,8.56,8.56,0,0,1-4.44,1.24Z" fill="#fff"/>
  </g>
</svg>
