<svg xmlns="http://www.w3.org/2000/svg" width="62" height="47.437" viewBox="0 0 62 47.437">
  <path id="listening" d="M57.928,108.123H55.977a9.752,9.752,0,0,0-3.454-2.725v-5.357c0-11.929-8.81-21.641-19.633-21.641h-2.9c-10.822,0-19.633,9.712-19.633,21.641v5.317A9.788,9.788,0,0,0,6.8,108.123H4.872A4.722,4.722,0,0,0,.4,113.053v3.861a4.722,4.722,0,0,0,4.472,4.929H6.459a9.327,9.327,0,0,0,7.392,3.981v.013h2.775a2.848,2.848,0,0,0,2.69-2.966V107.536a2.848,2.848,0,0,0-2.69-2.966H13.852v.013a9.121,9.121,0,0,0-1.491.16v-4.7c-.012-10.741,7.9-19.464,17.633-19.464h2.9c9.731,0,17.645,8.723,17.645,19.451v4.716a8.315,8.315,0,0,0-1.733-.187H46.04a2.848,2.848,0,0,0-2.69,2.966v15.336a2.848,2.848,0,0,0,2.69,2.966h2.775a9.31,9.31,0,0,0,7.514-3.994h1.6A4.722,4.722,0,0,0,62.4,116.9V113.04A4.718,4.718,0,0,0,57.928,108.123ZM4.872,119.666a2.638,2.638,0,0,1-2.5-2.752v-3.861a2.638,2.638,0,0,1,2.5-2.752h.545a11.557,11.557,0,0,0-.194,9.365Zm10.095-6.893h2.351v4.422H14.967ZM16.6,123.646H14.955v-4.275h2.363v3.5A.744.744,0,0,1,16.6,123.646Zm0-16.886a.742.742,0,0,1,.7.775v3.046H14.955v-3.821ZM12.979,123.58c-3.757-.534-6.665-4.088-6.665-8.376s2.909-7.842,6.665-8.376Zm34.83-6.386H45.325v-4.422h2.484ZM46.04,106.761h1.781v3.821H45.337v-3.046A.742.742,0,0,1,46.04,106.761Zm0,16.886a.742.742,0,0,1-.7-.775v-3.5h2.484v4.275Zm3.757-.067V106.828c3.757.534,6.665,4.088,6.665,8.376S53.553,123.045,49.8,123.58Zm10.616-6.666a2.638,2.638,0,0,1-2.5,2.752h-.364a11.557,11.557,0,0,0-.194-9.365h.57a2.638,2.638,0,0,1,2.5,2.752v3.861Z" transform="translate(-0.4 -78.4)" fill="#fff"/>
</svg>
