<svg xmlns="http://www.w3.org/2000/svg" width="45.428" height="58.136" viewBox="0 0 45.428 58.136">
  <g id="playing" transform="translate(-9.286 -3.143)">
    <rect id="Rectangle_30" data-name="Rectangle 30" width="6.489" height="2" transform="matrix(0.707, -0.707, 0.707, 0.707, 45.336, 21.043)" fill="#fff"/>
    <rect id="Rectangle_31" data-name="Rectangle 31" width="11.362" height="2" transform="translate(40.394 19.545) rotate(-45)" fill="#fff"/>
    <path id="Path_29" data-name="Path 29" d="M19.176,61.278a7.068,7.068,0,0,0,7-5.94l.357-2.162H37.469l.357,2.161a7.093,7.093,0,0,0,14.092-1.153V49.03a8.55,8.55,0,0,0,.8-3.609A8.652,8.652,0,0,0,40.23,37.665H23.774a8.652,8.652,0,0,0-12.488,7.756,8.55,8.55,0,0,0,.8,3.609v5.154a7.1,7.1,0,0,0,7.09,7.094ZM36.612,39.747v.082a4.612,4.612,0,1,1-9.224,0v-.082Zm-16.674-.979a6.584,6.584,0,0,1,3.125.78,1,1,0,0,0,.47.117h1.855v.164a6.612,6.612,0,0,0,13.224,0v-.164h1.855a1,1,0,0,0,.47-.117,6.584,6.584,0,0,1,3.125-.78,6.66,6.66,0,0,1,6.652,6.653,6.567,6.567,0,0,1-.693,2.939,1,1,0,0,0-.1.443v5.381a5.093,5.093,0,0,1-10.119.828l-.495-3a1,1,0,0,0-.987-.837H25.683a1,1,0,0,0-.987.837l-.5,3a5.093,5.093,0,0,1-10.119-.829V48.8a1,1,0,0,0-.1-.443,6.567,6.567,0,0,1-.693-2.939A6.66,6.66,0,0,1,19.938,38.768Z" fill="#fff"/>
    <path id="Path_30" data-name="Path 30" d="M18.694,49.115h2V46.6H23.2v-2h-2.51V42.094h-2V44.6h-2.51v2h2.51Z" fill="#fff"/>
    <rect id="Rectangle_32" data-name="Rectangle 32" width="2" height="2.082" transform="translate(43.551 42.094)" fill="#fff"/>
    <rect id="Rectangle_33" data-name="Rectangle 33" width="2" height="2.082" transform="translate(43.551 46.941)" fill="#fff"/>
    <rect id="Rectangle_34" data-name="Rectangle 34" width="2.082" height="2" transform="translate(45.934 44.559)" fill="#fff"/>
    <rect id="Rectangle_35" data-name="Rectangle 35" width="2.081" height="2" transform="translate(41.087 44.559)" fill="#fff"/>
    <path id="Path_31" data-name="Path 31" d="M10.286,32.826h9.546v2.942h2V32.826H42.168v2.942h2V32.826h9.546a1,1,0,0,0,1-1V4.143a1,1,0,0,0-1-1H10.286a1,1,0,0,0-1,1V31.826A1,1,0,0,0,10.286,32.826Zm42.428-2H11.286V26.5H52.714Zm0-25.683V24.5H11.286V5.143Z" fill="#fff"/>
    <rect id="Rectangle_36" data-name="Rectangle 36" width="3.232" height="2" transform="translate(30.384 27.663)" fill="#fff"/>
  </g>
</svg>
