<svg xmlns="http://www.w3.org/2000/svg" width="40" height="40" viewBox="0 0 40 40">
  <path id="reading" d="M38.645,4.135A26.993,26.993,0,0,0,24.623,6.716a6.523,6.523,0,0,0-2.131,2.289,6.5,6.5,0,0,0-2.131-2.289A27.093,27.093,0,0,0,6.34,4.135C4.188,4.226,2.484,6.457,2.494,9.17V35.893c-.018,2.751,1.733,5,3.915,5.035,3.342.07,11.545.5,15.511,2.937a1.093,1.093,0,0,0,.565.168,1.079,1.079,0,0,0,.583-.171c3.966-2.433,12.169-2.866,15.511-2.937,2.182-.033,3.933-2.284,3.915-5.035V9.166C42.5,6.453,40.8,4.224,38.645,4.135ZM5.139,35.89V9.166A1.554,1.554,0,0,1,6.417,7.488,25.059,25.059,0,0,1,19.2,9.747a4.724,4.724,0,0,1,1.952,4.071V39.9A46.02,46.02,0,0,0,6.438,37.551a1.523,1.523,0,0,1-1.3-1.661Zm34.692,0a1.527,1.527,0,0,1-1.3,1.678,46.181,46.181,0,0,0-14.715,2.323V13.818a4.731,4.731,0,0,1,1.947-4.071,22.673,22.673,0,0,1,10.967-2.3c.671,0,1.286,0,1.819.04a1.553,1.553,0,0,1,1.281,1.678Z" transform="translate(-2.494 -4.032)" fill="#fff"/>
</svg>
