<svg id="running" xmlns="http://www.w3.org/2000/svg" width="39.24" height="56.03" viewBox="0 0 39.24 56.03">
  <path id="Path_37" data-name="Path 37" d="M119.03,140.025l4.38,12.086a2.777,2.777,0,0,0,2.581,1.89,2.6,2.6,0,0,0,1-.2,3.026,3.026,0,0,0,1.58-3.828L124,137.349a2.989,2.989,0,0,0-.565-.958l-7.074-8.041a58.98,58.98,0,0,1-1.388,7.059Z" transform="translate(-89.518 -97.971)" fill="#fff"/>
  <rect id="Rectangle_37" data-name="Rectangle 37" width="8.415" height="0.406" transform="translate(6.99 8.297)" fill="#fff"/>
  <rect id="Rectangle_38" data-name="Rectangle 38" width="8.415" height="0.406" transform="translate(5.237 10.731)" fill="#fff"/>
  <rect id="Rectangle_39" data-name="Rectangle 39" width="12.074" height="0.406" transform="translate(0 9.514)" fill="#fff"/>
  <path id="Path_38" data-name="Path 38" d="M46.643,4.332a1.781,1.781,0,0,1-1.8-1.012l-6.242.76a5.681,5.681,0,0,0-.138,1.245,4.992,4.992,0,1,0,9.962,0,5.631,5.631,0,0,0-.377-2.035A1.813,1.813,0,0,1,46.643,4.332ZM45.772.617A4.705,4.705,0,0,0,43.445,0,4.957,4.957,0,0,0,39,2.92l5.637-.686A1.924,1.924,0,0,1,45.772.617ZM49.2,24.77q.655.809,1.268,1.693.232-1.235.369-2.515l-1.427.729A2.207,2.207,0,0,1,49.2,24.77Zm-4.23-11.514a4.466,4.466,0,0,0-4.468-1.675,2.323,2.323,0,0,0-.694.317l-7.261,4.036a1.947,1.947,0,0,0-.875,2.238l2.338,8.1a1.789,1.789,0,0,0,1.692,1.336,1.667,1.667,0,0,0,.523-.084A1.92,1.92,0,0,0,37.4,25.16l-1.9-6.593,2.857-1.588c.021.094.043.189.068.282.607,3.313,1.682,8.064,1.172,12.134-.145,2.629.4,3.312,1.651,3.5a41.775,41.775,0,0,1-1.97,6.913l-9.126-1.642a2.79,2.79,0,0,0-3.188,2.426A2.944,2.944,0,0,0,29.23,44l11.179,2.012a2.6,2.6,0,0,0,.46.041,2.736,2.736,0,0,0,2.374-1.44c.126-.225,3.048-5.544,4.216-15.581.017-.081.034-.162.05-.246.159-1.464.246-2.758.261-3.971a2.245,2.245,0,0,1-.929-.587l-5.9-6.154a2.563,2.563,0,0,1-.041-3.447,2.178,2.178,0,0,1,3.225-.044l4.764,4.966.166-.085c-.733-1.4-1.553-2.813-2.309-3.964A11.689,11.689,0,0,0,44.974,13.257Z" transform="translate(-20.962 0)" fill="#fff"/>
  <path id="Path_39" data-name="Path 39" d="M97.1,70.91a1.675,1.675,0,0,0,.763-.185l7.49-3.826a1.954,1.954,0,0,0,.835-2.525,1.723,1.723,0,0,0-2.362-.892l-6.375,3.257L92.43,61.507a1.691,1.691,0,0,0-2.5.034,1.987,1.987,0,0,0,.032,2.678l5.9,6.154A1.712,1.712,0,0,0,97.1,70.91Z" transform="translate(-69.627 -46.539)" fill="#fff"/>
</svg>
