<svg id="searching" xmlns="http://www.w3.org/2000/svg" width="37.916" height="38.712" viewBox="0 0 37.916 38.712">
  <path id="Path_68" data-name="Path 68" d="M0,0H37.916V38.712H0Z" fill="none"/>
  <path id="Path_69" data-name="Path 69" d="M22.748,20.743H21.5l-.442-.436a10.568,10.568,0,0,0,2.48-6.823A10.378,10.378,0,0,0,13.269,3,10.378,10.378,0,0,0,3,13.485,10.378,10.378,0,0,0,13.269,23.969a10.1,10.1,0,0,0,6.683-2.532l.427.452v1.274l7.9,8.049,2.354-2.4Zm-9.479,0A7.175,7.175,0,0,1,6.16,13.485a7.111,7.111,0,1,1,14.218,0A7.175,7.175,0,0,1,13.269,20.743Z" transform="translate(1.739 1.839)" fill="#fff"/>
</svg>
