<svg xmlns="http://www.w3.org/2000/svg" xmlns:xlink="http://www.w3.org/1999/xlink" width="47.5" height="47.5" viewBox="0 0 47.5 47.5">
  <defs>
    <clipPath id="clip-path">
      <path id="path18" d="M0-47.5H47.5V0H0Z" fill="#fff"/>
    </clipPath>
  </defs>
  <g id="singing" transform="translate(0 47.5)">
    <g id="g12">
      <g id="g14" clip-path="url(#clip-path)">
        <g id="g20" transform="translate(18.977 -46.041)">
          <path id="path22" d="M0,0-7.954,1.626A1.34,1.34,0,0,0-8.977,2.88V22.7a7.742,7.742,0,0,0-2.5-.41c-3.451,0-6.25,2.176-6.25,4.86s2.8,4.861,6.25,4.861c3.391,0,6.136-2.1,6.233-4.721h.017V7.888L0,6.819A1.339,1.339,0,0,0,1.023,5.565V.834A.819.819,0,0,0,0,0" fill="#fff"/>
        </g>
        <g id="g24" transform="translate(45.227 -41.041)">
          <path id="path26" d="M0,0-7.954,1.626A1.34,1.34,0,0,0-8.977,2.88V22.7a7.748,7.748,0,0,0-2.5-.41c-3.451,0-6.25,2.176-6.25,4.86s2.8,4.861,6.25,4.861c3.391,0,6.136-2.1,6.233-4.721h.017V7.888L0,6.819A1.339,1.339,0,0,0,1.023,5.565V.834A.819.819,0,0,0,0,0" fill="#fff"/>
        </g>
        <g id="g28" transform="translate(30.227 -33.541)">
          <path id="path30" d="M0,0-7.954,1.626A1.34,1.34,0,0,0-8.977,2.88V22.7a7.742,7.742,0,0,0-2.5-.41c-3.451,0-6.25,2.176-6.25,4.86s2.8,4.861,6.25,4.861c3.391,0,6.136-2.1,6.233-4.721h.017V7.888L0,6.819A1.339,1.339,0,0,0,1.023,5.565V.834A.819.819,0,0,0,0,0" fill="#fff"/>
        </g>
      </g>
    </g>
  </g>
</svg>
