<svg xmlns="http://www.w3.org/2000/svg" width="48" height="48" viewBox="0 0 48 48">
  <g id="swimming" transform="translate(0 0)">
    <path id="Path_71" data-name="Path 71" d="M41.245,48A5.432,5.432,0,0,1,37.8,46.821a3.648,3.648,0,0,0-4.611,0,5.623,5.623,0,0,1-6.89,0,3.641,3.641,0,0,0-4.606,0,5.624,5.624,0,0,1-6.891,0,3.639,3.639,0,0,0-4.6,0A5.422,5.422,0,0,1,6.748,48,5.422,5.422,0,0,1,3.3,46.821,3.472,3.472,0,0,0,1,46a1,1,0,0,1,0-2,5.419,5.419,0,0,1,3.445,1.179,3.474,3.474,0,0,0,2.3.821,3.472,3.472,0,0,0,2.3-.821A5.417,5.417,0,0,1,12.5,44a5.419,5.419,0,0,1,3.445,1.179,3.639,3.639,0,0,0,4.6,0,5.624,5.624,0,0,1,6.891,0,3.642,3.642,0,0,0,4.607,0,5.628,5.628,0,0,1,6.894,0,3.652,3.652,0,0,0,4.614,0A5.429,5.429,0,0,1,47,44a1,1,0,0,1,0,2,3.486,3.486,0,0,0-2.307.821A5.427,5.427,0,0,1,41.245,48Zm0-5a5.408,5.408,0,0,1-3.44-1.178,3.657,3.657,0,0,0-4.62,0,5.612,5.612,0,0,1-6.88,0,3.643,3.643,0,0,0-4.608,0A5.429,5.429,0,0,1,18.24,43a5.513,5.513,0,0,1-1.535-.2,6,6,0,0,1-1.914-.983,3.641,3.641,0,0,0-4.605.005,7.782,7.782,0,0,1-1.162.7A5.1,5.1,0,0,1,6.75,43,5.429,5.429,0,0,1,3.3,41.82,3.469,3.469,0,0,0,1,41a1,1,0,0,1,0-2,5.408,5.408,0,0,1,3.44,1.178A3.49,3.49,0,0,0,6.75,41a3.142,3.142,0,0,0,1.418-.282,6.065,6.065,0,0,0,.876-.538A5.439,5.439,0,0,1,12.5,39a5.4,5.4,0,0,1,3.434,1.177,4.2,4.2,0,0,0,1.312.7A3.585,3.585,0,0,0,18.24,41a3.49,3.49,0,0,0,2.31-.822,5.626,5.626,0,0,1,6.892,0,3.632,3.632,0,0,0,4.6,0,5.637,5.637,0,0,1,6.9,0,3.645,3.645,0,0,0,4.608,0A5.427,5.427,0,0,1,47,39a1,1,0,0,1,0,2,3.49,3.49,0,0,0-2.31.821A5.425,5.425,0,0,1,41.24,43ZM3.359,36.66a1,1,0,0,1-.537-.157A3.064,3.064,0,0,0,1,36a1,1,0,0,1,0-2,5.062,5.062,0,0,1,2.9.817,1,1,0,0,1-.539,1.843ZM29.74,38a5.408,5.408,0,0,1-3.44-1.178A3.488,3.488,0,0,0,23.99,36a1.012,1.012,0,0,1-1.157-.828.994.994,0,0,1,.816-1.149A2.057,2.057,0,0,1,23.99,34a5.429,5.429,0,0,1,3.452,1.18,3.632,3.632,0,0,0,4.6,0A5.429,5.429,0,0,1,35.49,34a5.18,5.18,0,0,1,2.36.512,1,1,0,0,1-.88,1.8A3.158,3.158,0,0,0,35.49,36a3.488,3.488,0,0,0-2.31.822A5.411,5.411,0,0,1,29.74,38Zm16.3-1.91a1,1,0,0,1-.209-1.978A5.647,5.647,0,0,1,47,34a1,1,0,0,1,0,2,3.7,3.7,0,0,0-.75.067A.96.96,0,0,1,46.039,36.09ZM36,18a6,6,0,1,1,6-6A6.006,6.006,0,0,1,36,18ZM36,8a4,4,0,1,0,4,4A4,4,0,0,0,36,8Z" fill="#fff"/>
    <path id="Path_72" data-name="Path 72" d="M41.24,38A5.425,5.425,0,0,1,37.8,36.825a6.305,6.305,0,0,0-.829-.515,1,1,0,0,1-.272-.193L30.41,29.824l-5.893,5.893a1,1,0,0,1-.681.292,3.44,3.44,0,0,0-2.146.812,5.624,5.624,0,0,1-6.892,0,3.643,3.643,0,0,0-4.608,0A5.408,5.408,0,0,1,6.75,38a5.45,5.45,0,0,1-3.456-1.181c-.152-.1-.3-.211-.464-.311a1,1,0,0,1-.177-1.556L18.124,19.48l-9.04-9.8a1,1,0,0,1,.029-1.385l8-8a1,1,0,0,1,1.414,0l4,4a1,1,0,0,1,0,1.414L20.236,8,46.7,34.291a.985.985,0,0,1,.209.3,1.1,1.1,0,0,1-.006.914,1.026,1.026,0,0,1-.677.565,3.794,3.794,0,0,0-1.538.75A5.437,5.437,0,0,1,41.24,38ZM38,34.59a8.748,8.748,0,0,1,.938.591,3.649,3.649,0,0,0,4.611,0c.226-.156.462-.321.729-.476L18.115,8.709a1,1,0,0,1,0-1.416L20.406,5,17.82,2.414,11.206,9.028l9.039,9.8a1,1,0,0,1-.028,1.385L4.929,35.505A3.178,3.178,0,0,0,6.75,36a3.469,3.469,0,0,0,2.3-.82A5.429,5.429,0,0,1,12.5,34a5.406,5.406,0,0,1,3.442,1.18,3.642,3.642,0,0,0,4.606,0,5.438,5.438,0,0,1,2.823-1.144L29.7,27.7a1,1,0,0,1,1.414,0Z" fill="#fff"/>
  </g>
</svg>
