<svg xmlns="http://www.w3.org/2000/svg" width="62" height="64" viewBox="0 0 62 64">
  <g id="thinking" transform="translate(-1)">
    <path id="Path_58" data-name="Path 58" d="M32,8a1,1,0,0,0,1-1V1a1,1,0,0,0-2,0V7A1,1,0,0,0,32,8Z" fill="#fff"/>
    <path id="Path_59" data-name="Path 59" d="M14.293,14.707a1,1,0,1,0,1.414-1.414l-5-5A1,1,0,1,0,9.293,9.707Z" fill="#fff"/>
    <path id="Path_60" data-name="Path 60" d="M49,15a1,1,0,0,0,.707-.293l5-5a1,1,0,1,0-1.414-1.414l-5,5A1,1,0,0,0,49,15Z" fill="#fff"/>
    <path id="Path_61" data-name="Path 61" d="M14.293,47.293l-5,5a1,1,0,1,0,1.414,1.414l5-5a1,1,0,1,0-1.414-1.414Z" fill="#fff"/>
    <path id="Path_62" data-name="Path 62" d="M49.707,47.293a1,1,0,1,0-1.414,1.414l5,5a1,1,0,1,0,1.414-1.414Z" fill="#fff"/>
    <path id="Path_63" data-name="Path 63" d="M2,32H8a1,1,0,0,0,0-2H2a1,1,0,0,0,0,2Z" fill="#fff"/>
    <path id="Path_64" data-name="Path 64" d="M56,32.011h6a1,1,0,0,0,0-2H56a1,1,0,1,0,0,2Z" fill="#fff"/>
    <path id="Path_65" data-name="Path 65" d="M22.415,49.69A3.047,3.047,0,0,1,24,52.41v1.774a2.983,2.983,0,0,0,.22,5.7A2.99,2.99,0,0,0,27,64H37a2.99,2.99,0,0,0,2.78-4.116,2.983,2.983,0,0,0,.22-5.7V52.33a2.962,2.962,0,0,1,1.6-2.651A20.931,20.931,0,0,0,53,31a20.182,20.182,0,0,0-.1-2.1,1,1,0,1,0-1.989.208A18.121,18.121,0,0,1,51,31,18.941,18.941,0,0,1,40.682,47.9,4.955,4.955,0,0,0,38,52.33V54H36V42h3a5,5,0,1,0-5-5v3H30V37a5,5,0,1,0-5,5h3V54H26V52.41a5.06,5.06,0,0,0-2.673-4.5A19,19,0,1,1,48.681,21.917a1,1,0,1,0,1.757-.954A21,21,0,1,0,22.415,49.69ZM36,37a3,3,0,1,1,3,3H36Zm1,25H27a1,1,0,0,1,0-2H37a1,1,0,0,1,0,2ZM25,40a3,3,0,1,1,3-3v3Zm5,2h4V54H30Zm9,14a1,1,0,0,1,0,2H25a1,1,0,0,1,0-2Z" fill="#fff"/>
    <path id="Path_66" data-name="Path 66" d="M51.38,24.08a.646.646,0,0,0-.18-.06.992.992,0,0,0-1.12,1.36,1.032,1.032,0,0,0,.21.33A1.05,1.05,0,0,0,51,26a1.033,1.033,0,0,0,.71-.29,1.014,1.014,0,0,0,0-1.42,1.712,1.712,0,0,0-.15-.12A.776.776,0,0,0,51.38,24.08Z" fill="#fff"/>
  </g>
</svg>
