<svg id="watching" xmlns="http://www.w3.org/2000/svg" width="64.015" height="59.895" viewBox="0 0 64.015 59.895">
  <path id="Path_47" data-name="Path 47" d="M88.018,121.992a.782.782,0,0,1-.325-.082.572.572,0,0,1-.3-.5v-8.891a.6.6,0,0,1,.3-.5.634.634,0,0,1,.613-.023l9.5,4.445a.583.583,0,0,1,.35.526.6.6,0,0,1-.35.526l-9.5,4.445A.841.841,0,0,1,88.018,121.992Zm.625-8.528v7l7.477-3.5Zm0,45.26h-16a.62.62,0,0,1-.625-.515L69.463,137.2a2.851,2.851,0,0,1,.775-2.293,3.274,3.274,0,0,1,2.351-.983,3.231,3.231,0,0,1,2.538,1.193,1.95,1.95,0,0,1,.213-.234,3.257,3.257,0,0,1,2.313-.959h.475a3.251,3.251,0,0,1,2.526,1.182,3.232,3.232,0,0,1,2.526-1.182h.475a3.236,3.236,0,0,1,2.313.959c.075.07.138.152.213.234a3.212,3.212,0,0,1,2.538-1.193,3.274,3.274,0,0,1,2.351.983,2.809,2.809,0,0,1,.775,2.293l-2.576,21.01A.621.621,0,0,1,88.643,158.725ZM73.2,157.555H88.093l2.488-20.484a1.684,1.684,0,0,0-.475-1.38,1.976,1.976,0,0,0-1.413-.6,1.848,1.848,0,0,0-1.888,1.614l-.038.4v.012l-.063.714a.6.6,0,0,1-.675.526.583.583,0,0,1-.563-.632l.063-.714a1.648,1.648,0,0,0-.488-1.345,1.926,1.926,0,0,0-1.4-.573h-.475a1.842,1.842,0,0,0-1.9,1.778v.912a.627.627,0,0,1-1.25,0v-.912a1.842,1.842,0,0,0-1.9-1.778H77.64a1.926,1.926,0,0,0-1.4.573,1.662,1.662,0,0,0-.488,1.345l.063.714a.593.593,0,0,1-.563.632.617.617,0,0,1-.675-.526l-.063-.714v-.012l-.038-.4a1.848,1.848,0,0,0-1.888-1.614,1.93,1.93,0,0,0-1.413.6,1.739,1.739,0,0,0-.475,1.38Z" transform="translate(-60.761 -98.83)" fill="#fff"/>
  <path id="Path_54" data-name="Path 54" d="M0,0,8.039-.036l-.005,1.25L-.005,1.25Z" transform="translate(15.061 38.913) rotate(86.219)" fill="#fff"/>
  <path id="Path_55" data-name="Path 55" d="M0,0,11.163-.051,11.158,1.2-.005,1.25Z" transform="translate(15.718 48.141) rotate(86.219)" fill="#fff"/>
  <rect id="Rectangle_42" data-name="Rectangle 42" width="2" height="10" transform="translate(19.008 49.689)" fill="#fff"/>
  <rect id="Rectangle_43" data-name="Rectangle 43" width="2" height="6" transform="translate(19.008 39.689)" fill="#fff"/>
  <path id="Path_57" data-name="Path 57" d="M0,0,1.25,0,1.2,11.053l-1.25,0Z" transform="translate(23.978 48.228) rotate(3.488)" fill="#fff"/>
  <path id="Path_56" data-name="Path 56" d="M0,0,1.25-.005,1.214,8.034l-1.25.005Z" transform="matrix(0.998, 0.066, -0.066, 0.998, 24.69, 38.912)" fill="#fff"/>
  <path id="Path_48" data-name="Path 48" d="M119.626,361.242c-3.213,0-5.626-1.252-5.626-2.925s2.413-2.925,5.626-2.925,5.626,1.252,5.626,2.925S122.84,361.242,119.626,361.242Zm0-4.679c-2.5,0-4.376.924-4.376,1.755s1.875,1.755,4.376,1.755,4.376-.924,4.376-1.755S122.127,356.562,119.626,356.562Zm32.383,14.155H140.756a.63.63,0,0,1-.625-.515l-2.376-17.547a.557.557,0,0,1,.15-.456.626.626,0,0,1,.475-.2h16a.667.667,0,0,1,.475.2.569.569,0,0,1,.15.456L152.634,370.2A.62.62,0,0,1,152.009,370.717Zm-10.7-1.17h10.152l2.213-16.378H139.093Z" transform="translate(-99.747 -310.822)" fill="#fff"/>
  <rect id="Rectangle_46" data-name="Rectangle 46" width="20" height="1" transform="translate(37.008 41.689)" fill="#fff"/>
  <path id="Path_49" data-name="Path 49" d="M320.629,335.509h-16a.6.6,0,0,1-.625-.585A3.031,3.031,0,0,1,307.126,332h11a3.031,3.031,0,0,1,3.126,2.925A.6.6,0,0,1,320.629,335.509Zm-15.266-1.17H319.9a1.878,1.878,0,0,0-1.763-1.17h-11A1.87,1.87,0,0,0,305.363,334.34Z" transform="translate(-265.991 -293.162)" fill="#fff"/>
  <path id="Path_50" data-name="Path 50" d="M318.989,262.032h-1.25v-6.551a.564.564,0,0,1,.238-.456l3.938-2.925.775.912-3.7,2.749Zm5.826,14.389h-12.9a.63.63,0,0,1-.625-.515l-.725-5.381a.556.556,0,0,1,.15-.456.626.626,0,0,1,.475-.2H325.54a.667.667,0,0,1,.475.2.569.569,0,0,1,.15.456l-.725,5.381A.62.62,0,0,1,324.815,276.421Zm-12.353-1.17h11.8l.575-4.211H311.9Z" transform="translate(-271.728 -222.609)" fill="#fff"/>
  <rect id="Rectangle_47" data-name="Rectangle 47" width="17.779" height="1.17" transform="translate(28.857 30.415)" fill="#fff"/>
  <path id="Path_51" data-name="Path 51" d="M9.127,72.4A2.759,2.759,0,0,1,8.752,71a2.823,2.823,0,0,1,.775-1.93A2.734,2.734,0,0,1,9.6,67.011c.013-.035.038-.07.05-.105H.625A.6.6,0,0,1,0,66.321V40.585A.6.6,0,0,1,.625,40H63.39a.6.6,0,0,1,.625.585V66.321a.6.6,0,0,1-.625.585H51.637v-1.17H62.765V41.17H1.25V65.736H10.9a.62.62,0,0,1,.588.386.566.566,0,0,1-.2.655,1.894,1.894,0,0,0-.55.69,1.653,1.653,0,0,0,.063,1.474.549.549,0,0,1-.15.714A1.7,1.7,0,0,0,9.99,71a1.674,1.674,0,0,0,.225.842Z" transform="translate(0 -35.321)" fill="#fff"/>
  <rect id="Rectangle_48" data-name="Rectangle 48" width="13" height="2" transform="translate(31.008 34.689)" fill="#fff"/>
  <path id="Path_52" data-name="Path 52" d="M60.077,36.264H49.137v-1.17h10.94a2.6,2.6,0,0,0,2.688-2.515V3.685A2.6,2.6,0,0,0,60.077,1.17H3.938A2.6,2.6,0,0,0,1.25,3.685V32.579a2.6,2.6,0,0,0,2.688,2.515H9.377v1.17H3.938A3.818,3.818,0,0,1,0,32.579V3.685A3.818,3.818,0,0,1,3.938,0H60.077a3.818,3.818,0,0,1,3.938,3.685V32.579A3.818,3.818,0,0,1,60.077,36.264Z" fill="#fff"/>
  <path id="Path_53" data-name="Path 53" d="M114.717,227.727l-1.1-.562a1.674,1.674,0,0,0,.225-.842,1.719,1.719,0,0,0-.663-1.345.549.549,0,0,1-.15-.714,1.655,1.655,0,0,0,.063-1.474,1.86,1.86,0,0,0-1.163-1.006.6.6,0,0,1-.438-.608,1.69,1.69,0,0,0-.538-1.392,1.951,1.951,0,0,0-1.488-.5.622.622,0,0,1-.65-.409,1.8,1.8,0,0,0-1.075-1.088,1.992,1.992,0,0,0-1.575.058.642.642,0,0,1-.763-.14,1.977,1.977,0,0,0-2.876,0,.642.642,0,0,1-.763.14,1.994,1.994,0,0,0-1.575-.058,1.78,1.78,0,0,0-1.063,1.088.636.636,0,0,1-.65.409,1.951,1.951,0,0,0-1.488.5l-.888-.831a3.229,3.229,0,0,1,2-.854,3.048,3.048,0,0,1,1.6-1.4,3.38,3.38,0,0,1,2.2-.07,3.3,3.3,0,0,1,4.126,0,3.308,3.308,0,0,1,2.2.07,3,3,0,0,1,1.6,1.4,3.166,3.166,0,0,1,2,.854,2.849,2.849,0,0,1,.913,1.872,3.01,3.01,0,0,1,1.5,1.5,2.792,2.792,0,0,1,.075,2.059,2.8,2.8,0,0,1,.775,1.93A2.933,2.933,0,0,1,114.717,227.727Z" transform="translate(-84.085 -190.644)" fill="#fff"/>
</svg>
