<svg xmlns="http://www.w3.org/2000/svg" xmlns:xlink="http://www.w3.org/1999/xlink" width="22" height="22" viewBox="0 0 22 22">
  <defs>
    <clipPath id="clip-path">
      <rect id="Rectangle_50" data-name="Rectangle 50" width="22" height="22" fill="#373f51"/>
    </clipPath>
  </defs>
  <g id="Group_21" data-name="Group 21" clip-path="url(#clip-path)">
    <path id="Path_93" data-name="Path 93" d="M10.022,18.985V9.812A2,2,0,0,1,11.3,8.035l8.241-2.747a.914.914,0,0,1,1.281.923v6.658a.749.749,0,0,1-.89.764,4.969,4.969,0,0,0-2,.123c-2.184.562-3.656,2.191-3.284,3.634s2.446,2.159,4.631,1.6c2.029-.522,3.443-1.964,3.336-3.324L22.625,2.61a.873.873,0,0,0-1.263-.876L9.487,6.187A2.093,2.093,0,0,0,8.222,8.012V16.2a.751.751,0,0,1-.89.766,4.965,4.965,0,0,0-1.99.126c-2.184.562-3.656,2.19-3.284,3.634s2.446,2.159,4.631,1.6C8.725,21.8,10.142,20.349,10.022,18.985Z" transform="translate(-1.313 -1.085)" fill="#373f51"/>
  </g>
</svg>
