<svg xmlns="http://www.w3.org/2000/svg" width="30" height="22" viewBox="0 0 30 22">
  <g id="no_sound" data-name="no sound" transform="translate(0 -3)">
    <path id="Path_83" data-name="Path 83" d="M14.323,3c-1.25,0-1.25.159-8.449,4.891H1.25A1.237,1.237,0,0,0,0,9.114V18.9A1.237,1.237,0,0,0,1.25,20.12H5.874l6.7,4.366a3.234,3.234,0,0,0,3.248.146A3.1,3.1,0,0,0,17.5,21.905V6.106A3.141,3.141,0,0,0,14.323,3ZM2.5,10.337H4.249v7.337H2.5V10.337ZM15,21.905a.671.671,0,0,1-.359.563.7.7,0,0,1-.678-.013L5.874,17.674V10.337L13.96,5.556a.7.7,0,0,1,.678-.013A.671.671,0,0,1,15,6.106Zm11.76-7.9,2.875-2.8a1.209,1.209,0,0,0,0-1.736,1.275,1.275,0,0,0-1.775,0L25,12.281,22.134,9.469a1.275,1.275,0,0,0-1.775,0,1.209,1.209,0,0,0,0,1.736l2.875,2.8-2.875,2.8a1.209,1.209,0,0,0,0,1.736,1.275,1.275,0,0,0,1.775,0L25,15.73l2.862,2.813a1.275,1.275,0,0,0,1.775,0,1.209,1.209,0,0,0,0-1.736Z" fill="#fff"/>
  </g>
</svg>
