<svg id="Group_16" data-name="Group 16" xmlns="http://www.w3.org/2000/svg" width="24" height="24" viewBox="0 0 24 24">
  <path id="Path_26" data-name="Path 26" d="M21,3H3C1.9,3,1.791,12.274,1.791,13.74l.219,10.593C2.009,25.8,1.9,27,3,27H22.212c1.1,0,0-1.2,0-2.667V5.1C22.212,3.634,22.1,3,21,3Zm1.212,20.7c0,.733.55,2.071,0,2.071H3.754c-.55,0-1.964-1.659-1.964-2.392L2.009,5.667c0-.733,1.441,0,1.991,0H22.212c.55,0,0,.593,0,1.326ZM10.022,11A1.053,1.053,0,0,0,9,12.162v5.657A1.07,1.07,0,0,0,10.022,19c.55,0,.978-.447.978-1.181V12.162C11,11.429,10.572,11,10.022,11ZM14,11a1.038,1.038,0,0,0-1,1.162v5.657a1.014,1.014,0,1,0,2,0V12.162A1.038,1.038,0,0,0,14,11Z" transform="translate(0 -3)" fill="#fff"/>
  <path id="Path_31" data-name="Path 31" d="M25.38,61.311a.968.968,0,0,0-.763-.411H2.778A1.279,1.279,0,0,0,1.7,62.306V83.494A1.275,1.275,0,0,0,2.778,84.9H24.612a1.275,1.275,0,0,0,1.078-1.406L25.7,62.306A1.678,1.678,0,0,0,25.38,61.311ZM2.355,71.691c0-.276.636,2.412.876,2.412s0-2.688,0-2.412V74.1c0,.276-.54-3.512-.781-3.512s-.1,2.551-.1,2.275ZM3.4,75.423c-.278,0-.169.893-.169.53s-.212,0,.066,0,0-.236,0,.126S3.678,75.423,3.4,75.423Zm20.134,6.666H3.857V63.711H23.543ZM25.05,74.06c0,.307.24-.31,0-.31s.222.407.222.1L25.2,71.275c0-.307-.825-.407-.585-.407s.26.1.26.407Z" transform="translate(-1.7 -60.9)" fill="#fff"/>
</svg>
