<svg xmlns="http://www.w3.org/2000/svg" width="24" height="24" viewBox="0 0 24 24">
  <g id="Group_17" data-name="Group 17" transform="translate(0.3 -60.9)">
    <path id="Path_27" data-name="Path 27" d="M206.392,185.55l4.592-3.775a.922.922,0,0,0,0-1.381l-4.592-3.775a.751.751,0,0,0-1.192.694v7.55A.75.75,0,0,0,206.392,185.55Z" transform="translate(-196.547 -108.184)" fill="#fff"/>
    <path id="Path_30" data-name="Path 30" d="M25.38,61.311a.968.968,0,0,0-.763-.411H2.778A1.279,1.279,0,0,0,1.7,62.306V83.494A1.275,1.275,0,0,0,2.778,84.9H24.612a1.275,1.275,0,0,0,1.078-1.406L25.7,62.306A1.678,1.678,0,0,0,25.38,61.311ZM2.355,71.691c0-.276.636,2.412.876,2.412s0-2.688,0-2.412V74.1c0,.276-.54-3.512-.781-3.512s-.1,2.551-.1,2.275ZM3.4,75.423c-.278,0-.169.893-.169.53s-.212,0,.066,0,0-.236,0,.126S3.678,75.423,3.4,75.423Zm20.134,6.666H3.857V63.711H23.543ZM25.05,74.06c0,.307.24-.31,0-.31s.222.407.222.1L25.2,71.275c0-.307-.825-.407-.585-.407s.26.1.26.407Z" transform="translate(-2)" fill="#fff"/>
  </g>
</svg>
