<svg xmlns="http://www.w3.org/2000/svg" width="31" height="31" viewBox="0 0 31 31">
  <g id="Group_16" data-name="Group 16" transform="translate(-0.5 -0.5)">
    <path id="Path_25" data-name="Path 25" d="M16,.5A15.5,15.5,0,1,0,31.5,16,15.517,15.517,0,0,0,16,.5Zm0,28A12.5,12.5,0,1,1,28.5,16,12.514,12.514,0,0,1,16,28.5Z" fill="#fff"/>
    <path id="Path_26" data-name="Path 26" d="M20.59,19.321a6.469,6.469,0,0,1-9.18,0,1.5,1.5,0,1,0-2.121,2.121,9.468,9.468,0,0,0,13.422,0,1.5,1.5,0,1,0-2.121-2.121Zm-8.331-7.9a2.149,2.149,0,1,0-2.149,2.149A2.149,2.149,0,0,0,12.259,11.417ZM21.89,9.269a2.149,2.149,0,1,0,2.149,2.149A2.149,2.149,0,0,0,21.89,9.269Z" fill="#fff"/>
  </g>
</svg>
