<svg xmlns="http://www.w3.org/2000/svg" width="26.483" height="23.58" viewBox="0 0 26.483 23.58">
  <path id="Path_11" data-name="Path 11" d="M1.727,25.58H24.88a1.687,1.687,0,0,0,1.429-.763,1.5,1.5,0,0,0,.041-1.549L14.8,2.832A1.678,1.678,0,0,0,13.332,2h0a1.679,1.679,0,0,0-1.467.83L.26,23.266A1.5,1.5,0,0,0,.3,24.816a1.692,1.692,0,0,0,1.429.764Zm11.6-6.288a1.575,1.575,0,1,1-1.666,1.572,1.621,1.621,0,0,1,1.666-1.572Zm-1.665-3.119V9.885a1.668,1.668,0,0,1,3.33,0v6.288a1.668,1.668,0,0,1-3.33,0Z" transform="translate(-0.063 -2)" fill="rgba(255,255,255,0.95)"/>
</svg>
