<svg xmlns="http://www.w3.org/2000/svg" width="30" height="21.995" viewBox="0 0 30 21.995">
  <g id="Group_18" data-name="Group 18" transform="translate(-1 -5.001)">
    <path id="Path_80" data-name="Path 80" d="M17.577,5.451a2.989,2.989,0,0,0-2.937-.122L5.753,10H4a3,3,0,0,0-3,3v6a3,3,0,0,0,3,3H5.753l8.887,4.671.018.009A3,3,0,0,0,19,24V8A2.981,2.981,0,0,0,17.577,5.451ZM3,19V13a1,1,0,0,1,1-1H5v8H4A1,1,0,0,1,3,19Zm14,5a1,1,0,0,1-1.439.9L7,20.4V11.6l8.553-4.5A1,1,0,0,1,17,8ZM28.311,7.427A1,1,0,1,0,26.67,8.571a13.006,13.006,0,0,1,0,14.856,1,1,0,0,0,1.641,1.145,15.008,15.008,0,0,0,0-17.145Z" fill="#fff"/>
    <path id="Path_81" data-name="Path 81" d="M25.437,9.427A1,1,0,1,0,23.8,10.571a9.5,9.5,0,0,1,0,10.856,1,1,0,0,0,1.641,1.145A11.506,11.506,0,0,0,25.437,9.427Z" fill="#fff"/>
    <path id="Path_82" data-name="Path 82" d="M22.568,11.432a1,1,0,1,0-1.641,1.144,6,6,0,0,1,0,6.853,1,1,0,0,0,1.641,1.145,8,8,0,0,0,0-9.142Z" fill="#fff"/>
  </g>
</svg>
