<?xml version="1.0" encoding="UTF-8"?>
<svg width="80px" height="80px" viewBox="0 0 80 80" version="1.1" xmlns="http://www.w3.org/2000/svg" xmlns:xlink="http://www.w3.org/1999/xlink">
    <!-- Generator: Sketch 49.2 (51160) - http://www.bohemiancoding.com/sketch -->
    <title>angry</title>
    <desc>Created with Sketch.</desc>
    <defs>
        <linearGradient x1="33.2617243%" y1="19.0398532%" x2="77.5658993%" y2="86.8221975%" id="linearGradient-1">
            <stop stop-color="#FF6D60" offset="0%"></stop>
            <stop stop-color="#F6BE71" offset="100%"></stop>
        </linearGradient>
        <circle id="path-2" cx="40" cy="40" r="40"></circle>
    </defs>
    <g id="Page-3" stroke="none" stroke-width="1" fill="none" fill-rule="evenodd">
        <g id="angry">
            <g id="Oval-5">
                <mask id="mask-3" fill="white">
                    <use xlink:href="#path-2"></use>
                </mask>
                <use id="Mask" fill="url(#linearGradient-1)" xlink:href="#path-2"></use>
            </g>
            <g id="Group-27" transform="translate(14.000000, 24.000000)" fill="#2D2D2D">
                <g id="5-copy" transform="translate(5.000000, 9.000000)">
                    <g id="Oval-4">
                        <ellipse cx="4.5" cy="5.5" rx="4.5" ry="5.5"></ellipse>
                    </g>
                    <g id="Oval-4-Copy" transform="translate(37.500000, 5.500000) scale(-1, 1) translate(-37.500000, -5.500000) translate(33.000000, 0.000000)">
                        <ellipse id="Oval-4" cx="4.5" cy="5.5" rx="4.5" ry="5.5"></ellipse>
                    </g>
                </g>
                <path d="M8.16594841,4.79158364 C13.2931094,6.91470445 13.481462,8.26220351 14.5329397,6.56598154 C15.3486441,5.25010417 11.4988157,3.22818543 8.37396361,2.35703052 C4.54682195,1.29008938 0.363555605,1.65221233 0.48559885,3.04717301 C0.739014584,5.9437281 3.0387874,2.66846282 8.16594841,4.79158364 Z" id="Oval-14-Copy-7" transform="translate(7.563398, 4.535481) rotate(-165.000000) translate(-7.563398, -4.535481) "></path>
                <path d="M45.1659484,4.79158364 C50.2931094,6.91470445 50.481462,8.26220351 51.5329397,6.56598154 C52.3486441,5.25010417 48.4988157,3.22818543 45.3739636,2.35703052 C41.5468219,1.29008938 37.3635556,1.65221233 37.4855988,3.04717301 C37.7390146,5.9437281 40.0387874,2.66846282 45.1659484,4.79158364 Z" id="Oval-14-Copy-8" transform="translate(44.563398, 4.535481) scale(-1, 1) rotate(-165.000000) translate(-44.563398, -4.535481) "></path>
                <path d="M15.727139,29.6134746 C19.4245139,27.1469735 22.4622787,25 26.0149783,25 C29.5676779,25 32.6054428,27.1469735 36.3028176,29.6134746 C36.3028176,29.6134746 36.3028176,29.6134746 36.3028176,29.6134746 L36.3028176,29.6134746 C37.0405585,30.105618 37.2396545,31.1026361 36.7475112,31.8403769 C36.2553678,32.5781178 35.2583497,32.7772138 34.5206088,32.2850705 C34.4831493,32.2600814 34.4467576,32.2335277 34.41153,32.2054798 C30.8954698,29.4060101 28.0972577,28.0062777 26.0168975,28.0062777 C23.9140721,28.0062777 21.1536032,29.4364038 17.7354907,32.2966561 L17.7354819,32.2966456 C17.0246543,32.891461 15.9662216,32.7974146 15.3714061,32.0865871 C14.7765907,31.3757595 14.8706371,30.3173268 15.5814646,29.7225113 C15.6280152,29.6835581 15.6766448,29.647159 15.727139,29.6134746 C15.727139,29.6134746 15.727139,29.6134746 15.727139,29.6134746 Z" id="Rectangle-8-Copy-2"></path>
            </g>
        </g>
    </g>
</svg>