<?xml version="1.0" encoding="UTF-8"?>
<svg width="80px" height="80px" viewBox="0 0 80 80" version="1.1" xmlns="http://www.w3.org/2000/svg" xmlns:xlink="http://www.w3.org/1999/xlink">
    <!-- Generator: Sketch 49.2 (51160) - http://www.bohemiancoding.com/sketch -->
    <title>excited</title>
    <desc>Created with Sketch.</desc>
    <defs>
        <linearGradient x1="33.2617243%" y1="19.0398532%" x2="77.5658993%" y2="86.8221975%" id="linearGradient-1">
            <stop stop-color="#FFD971" offset="0%"></stop>
            <stop stop-color="#F6BE71" offset="100%"></stop>
        </linearGradient>
        <path d="M27,27.3573133 C41.9116882,27.3573133 54,10.3288181 54,3.91603855 C54,-1.85529387 43.3638855,0.856168615 30.3664366,1.45634795 C28.9218523,1.52305409 27.4480986,1.56367973 25.9565364,1.56367973 C11.0448481,1.56367973 0,-2.29816593 0,3.91603855 C6.00864711e-16,10.130243 12.0883118,27.3573133 27,27.3573133 Z" id="path-2"></path>
        <linearGradient x1="50%" y1="0%" x2="50%" y2="98.0265535%" id="linearGradient-4">
            <stop stop-color="#64D0FF" offset="0%"></stop>
            <stop stop-color="#0571CF" offset="100%"></stop>
        </linearGradient>
    </defs>
    <g id="Page-3" stroke="none" stroke-width="1" fill="none" fill-rule="evenodd">
        <g id="excited">
            <circle id="BG-Copy" fill="url(#linearGradient-1)" cx="40" cy="40" r="40"></circle>
            <g id="Group-24" transform="translate(1.000000, 15.000000)">
                <g id="Group-22" transform="translate(34.889071, 15.770846) rotate(-27.000000) translate(-34.889071, -15.770846) translate(13.889071, 8.770846)" fill="#2D2D2D">
                    <g id="Group-21">
                        <path d="M6.7910726,3.75315293 C11.905911,5.7011436 14.5251567,7.62967949 14.5251567,4.86511732 C14.5251567,2.10055515 1,-1.6446987 1,0.782325722 C1,3.20935014 1.67623425,1.80516225 6.7910726,3.75315293 Z" id="Oval-14-Copy-4"></path>
                        <path d="M6.91389148,7.20408735 C12.0287298,9.15207802 14.0915746,11.3793688 14.0915746,8.61480659 C14.0915746,5.85024442 1.12281888,1.80623572 1.12281888,4.23326014 C1.12281888,6.66028456 1.79905313,5.25609668 6.91389148,7.20408735 Z" id="Oval-14-Copy-6" transform="translate(7.607197, 6.699467) rotate(-35.000000) translate(-7.607197, -6.699467) "></path>
                    </g>
                    <g id="Group-21-Copy" transform="translate(34.500000, 6.500000) scale(-1, 1) translate(-34.500000, -6.500000) translate(27.000000, 0.000000)">
                        <path d="M6.7910726,3.75315293 C11.905911,5.7011436 14.5251567,7.62967949 14.5251567,4.86511732 C14.5251567,2.10055515 1,-1.6446987 1,0.782325722 C1,3.20935014 1.67623425,1.80516225 6.7910726,3.75315293 Z" id="Oval-14-Copy-4"></path>
                        <path d="M7.09638342,6.86371777 C12.2112218,8.81170844 14.2740665,11.0389992 14.2740665,8.27443701 C14.2740665,5.50987484 1.30531081,1.46586614 1.30531081,3.89289056 C1.30531081,6.31991498 1.98154507,4.91572709 7.09638342,6.86371777 Z" id="Oval-14-Copy-6" transform="translate(7.789689, 6.359097) rotate(-35.000000) translate(-7.789689, -6.359097) "></path>
                    </g>
                </g>
                <g id="Oval-13-Copy" transform="translate(45.402791, 39.266890) rotate(-23.000000) translate(-45.402791, -39.266890) translate(18.402791, 25.266890)">
                    <mask id="mask-3" fill="white">
                        <use xlink:href="#path-2"></use>
                    </mask>
                    <use id="Mask" stroke="#542A14" stroke-width="4" fill="#542A14" xlink:href="#path-2"></use>
                    <ellipse id="Oval-13" fill="#F46767" mask="url(#mask-3)" cx="25.8278066" cy="31.4866935" rx="12" ry="9.57505964"></ellipse>
                    <path d="M27.1267343,6.61959798 C39.5531412,6.61959798 49.7483115,2.40868047 49.7483115,-2.87947895 C49.7483115,-8.16763837 39.6747183,-12.4545386 27.2483115,-12.4545386 C14.8219046,-12.4545386 4.74831147,-8.16763837 4.74831147,-2.87947895 C4.74831147,2.40868047 14.7003275,6.61959798 27.1267343,6.61959798 Z" id="Oval-2" fill="#FFFFFF" mask="url(#mask-3)"></path>
                </g>
                <g id="Group-23" fill="url(#linearGradient-4)">
                    <path d="M56.7547448,3.02355547 C65.1617243,3.72633959 70.3786203,5.11050569 72.4054328,7.17605379 C73.6711553,8.46596625 74.3324551,10.4394515 74.3893321,13.0965094 L74.3893276,13.0965095 C74.4562168,16.221296 72.2728332,18.9442785 69.2081977,19.5580978 L69.2081977,19.5580978 C66.5691715,20.0866713 63.9469032,18.5782643 63.0770353,16.0312701 C61.8141307,12.3335164 60.9812893,10.0352348 60.5784924,9.1364318 C60.0330872,7.9194118 58.7585046,5.88178635 56.7547448,3.02355547 Z" id="Path-2-Copy-5" transform="translate(65.572784, 11.343407) rotate(-26.000000) translate(-65.572784, -11.343407) "></path>
                    <path d="M2.54983367,28.7840946 C10.9568131,29.4868787 16.1737091,30.8710448 18.2005217,32.9365929 C19.4662442,34.2265054 20.1275439,36.1999906 20.184421,38.8570486 L20.1844165,38.8570487 C20.2513057,41.9818351 18.0679221,44.7048176 15.0032866,45.3186369 L15.0032866,45.3186369 C12.3642604,45.8472104 9.74199206,44.3388034 8.87212419,41.7918092 C7.60921955,38.0940555 6.7763782,35.7957739 6.37358131,34.8969709 C5.82817604,33.6799509 4.5535935,31.6423255 2.54983367,28.7840946 Z" id="Path-2-Copy-6" transform="translate(11.367873, 37.103946) scale(-1, 1) rotate(23.000000) translate(-11.367873, -37.103946) "></path>
                </g>
            </g>
        </g>
    </g>
</svg>