<?xml version="1.0" encoding="UTF-8"?>
<svg width="80px" height="80px" viewBox="0 0 80 80" version="1.1" xmlns="http://www.w3.org/2000/svg" xmlns:xlink="http://www.w3.org/1999/xlink">
    <!-- Generator: Sketch 49.2 (51160) - http://www.bohemiancoding.com/sketch -->
    <title>amused</title>
    <desc>Created with Sketch.</desc>
    <defs>
        <linearGradient x1="33.2617243%" y1="19.0398532%" x2="77.5658993%" y2="86.8221975%" id="linearGradient-1">
            <stop stop-color="#FFD971" offset="0%"></stop>
            <stop stop-color="#F6BE71" offset="100%"></stop>
        </linearGradient>
    </defs>
    <g id="Page-1" stroke="none" stroke-width="1" fill="none" fill-rule="evenodd">
        <g id="emodji" transform="translate(-202.000000, -107.000000)">
            <g id="amused" transform="translate(202.000000, 107.000000)">
                <circle id="BG" fill="url(#linearGradient-1)" cx="40" cy="40" r="40"></circle>
                <g id="Group-20" transform="translate(19.000000, 36.000000)" fill="#2D2D2D">
                    <path d="M19.7098564,25.2596935 C22.2998176,23.5319428 25.6613462,22.0267171 28.6637699,21.2800399 C29.947544,20.9607763 31.1656651,20.7801935 32.2297465,20.7801935 C35.7824461,20.7801935 44.650338,22.8290908 48.3477128,25.2955918 C48.3477128,25.2955918 48.3477128,25.2955918 48.3477128,25.2955918 L48.3477128,25.2955918 C48.90757,25.6690698 49.0586601,26.4256874 48.6851821,26.9855445 C48.3621724,27.4697478 47.7418244,27.6579137 47.2042523,27.4347447 C44.6721664,26.3835767 42.7763221,25.660786 41.5167164,25.26638 C37.6079464,24.0424713 33.6794863,23.7864712 32.2316657,23.7864712 C30.0767787,23.7864712 26.5078795,25.244867 21.524968,28.1616587 L21.5249786,28.1616768 C20.7088989,28.6393764 19.6600836,28.365065 19.1823841,27.5489854 C18.7243991,26.766585 18.9556794,25.7628014 19.7098564,25.2596935 C19.7098564,25.2596935 19.7098564,25.2596935 19.7098564,25.2596935 Z" id="Rectangle-8-Copy-4" transform="translate(33.918911, 24.588343) rotate(-207.000000) translate(-33.918911, -24.588343) "></path>
                    <g id="Group-15-Copy">
                        <ellipse id="Oval-11" cx="9.01212659" cy="5.73913043" rx="4.37444543" ry="4"></ellipse>
                        <path d="M6.07852853,4.10855548 C8.23317648,4.10855548 11.2010204,6.66875872 12.6248944,6.89655981 C13.5081802,7.03787389 13.3692709,5.65010809 13.3692709,4.10855548 C13.3692709,0.0819896455 7.97853672,-0.102629547 6.07852853,0.0270103783 C4.17852034,0.156650304 8.28355929e-14,3.09938808 0,4.97571139 C-8.28861446e-14,6.85203469 2.58726671,4.10855548 6.07852853,4.10855548 Z" id="Oval-11-Copy"></path>
                    </g>
                    <g id="Group-15-Copy-2" transform="translate(28.000000, 0.000000)">
                        <ellipse id="Oval-11" cx="9.01212659" cy="5.73913043" rx="4.37444543" ry="4"></ellipse>
                        <path d="M6.07852853,4.10855548 C8.23317648,4.10855548 11.2010204,6.66875872 12.6248944,6.89655981 C13.5081802,7.03787389 13.3692709,5.65010809 13.3692709,4.10855548 C13.3692709,0.0819896455 7.97853672,-0.102629547 6.07852853,0.0270103783 C4.17852034,0.156650304 8.28355929e-14,3.09938808 0,4.97571139 C-8.28861446e-14,6.85203469 2.58726671,4.10855548 6.07852853,4.10855548 Z" id="Oval-11-Copy"></path>
                    </g>
                </g>
            </g>
        </g>
    </g>
</svg>