<?xml version="1.0" encoding="UTF-8"?>
<svg width="80px" height="80px" viewBox="0 0 80 80" version="1.1" xmlns="http://www.w3.org/2000/svg" xmlns:xlink="http://www.w3.org/1999/xlink">
    <!-- Generator: Sketch 49.2 (51160) - http://www.bohemiancoding.com/sketch -->
    <title>sad2</title>
    <desc>Created with Sketch.</desc>
    <defs>
        <linearGradient x1="33.2617243%" y1="19.0398532%" x2="77.5658993%" y2="86.8221975%" id="linearGradient-1">
            <stop stop-color="#FFD971" offset="0%"></stop>
            <stop stop-color="#F6BE71" offset="100%"></stop>
        </linearGradient>
    </defs>
    <g id="Page-3" stroke="none" stroke-width="1" fill="none" fill-rule="evenodd">
        <g id="sad2">
            <circle id="BG-Copy-2" fill="url(#linearGradient-1)" cx="40" cy="40" r="40"></circle>
            <g id="Group-26" transform="translate(13.000000, 20.000000)" fill="#2D2D2D">
                <path d="M16.727139,35.6134746 C20.4245139,33.1469735 23.4622787,31 27.0149783,31 C30.5676779,31 33.6054428,33.1469735 37.3028176,35.6134746 C37.3028176,35.6134746 37.3028176,35.6134746 37.3028176,35.6134746 L37.3028176,35.6134746 C38.0405585,36.105618 38.2396545,37.1026361 37.7475112,37.8403769 C37.2553678,38.5781178 36.2583497,38.7772138 35.5206088,38.2850705 C35.4831493,38.2600814 35.4467576,38.2335277 35.41153,38.2054798 C31.8954698,35.4060101 29.0972577,34.0062777 27.0168975,34.0062777 C24.9140721,34.0062777 22.1536032,35.4364038 18.7354907,38.2966561 L18.7354819,38.2966456 C18.0246543,38.891461 16.9662216,38.7974146 16.3714061,38.0865871 C15.7765907,37.3757595 15.8706371,36.3173268 16.5814646,35.7225113 C16.6280152,35.6835581 16.6766448,35.647159 16.727139,35.6134746 C16.727139,35.6134746 16.727139,35.6134746 16.727139,35.6134746 Z" id="Rectangle-8-Copy-4"></path>
                <ellipse id="Oval-4-Copy-2" cx="10.5" cy="17.5" rx="4.5" ry="5.5"></ellipse>
                <ellipse id="Oval-4-Copy-3" cx="43.5" cy="17.5" rx="4.5" ry="5.5"></ellipse>
                <path d="M46.133506,8.21969312 C51.2606671,10.3428139 51.4490197,11.690313 52.5004973,9.99409102 C53.3162017,8.67821366 49.4663733,6.65629491 46.3415213,5.78514 C42.5143796,4.71819886 38.3311132,5.08032181 38.4531565,6.47528249 C38.7065722,9.37183759 41.006345,6.09657231 46.133506,8.21969312 Z" id="Oval-14-Copy-10" transform="translate(45.530956, 7.963591) scale(-1, 1) rotate(-225.000000) translate(-45.530956, -7.963591) "></path>
                <path d="M8.13350605,9.21969312 C13.2606671,11.3428139 13.4490197,12.690313 14.5004973,10.994091 C15.3162017,9.67821366 11.4663733,7.65629491 8.34152125,6.78514 C4.51437959,5.71819886 0.331113247,6.08032181 0.453156492,7.47528249 C0.706572226,10.3718376 3.00634504,7.09657231 8.13350605,9.21969312 Z" id="Oval-14-Copy-13" transform="translate(7.530956, 8.963591) rotate(-225.000000) translate(-7.530956, -8.963591) "></path>
            </g>
        </g>
    </g>
</svg>